<?xml version="1.0" standalone="no"?>
<!DOCTYPE svg PUBLIC "-//W3C//DTD SVG 20010904//EN"
 "http://www.w3.org/TR/2001/REC-SVG-20010904/DTD/svg10.dtd">
<svg version="1.0" xmlns="http://www.w3.org/2000/svg"
 width="845.000000pt" height="295.000000pt" viewBox="0 0 845.000000 295.000000"
 preserveAspectRatio="xMidYMid meet">

<g transform="translate(0.000000,295.000000) scale(0.100000,-0.100000)"
fill="#000000" stroke="none">
<path d="M5370 2000 c-19 -5 -71 -16 -115 -25 -237 -51 -452 -159 -585 -294
-82 -83 -117 -151 -99 -192 17 -42 49 -39 49 4 0 49 65 150 137 214 172 150
432 249 683 260 149 7 244 -7 327 -46 74 -35 126 -80 161 -140 24 -41 27 -55
27 -141 -1 -82 -4 -103 -28 -155 -63 -135 -190 -250 -380 -344 -130 -64 -143
-68 -150 -41 -3 11 -6 156 -7 321 0 165 -3 306 -7 315 -3 8 -15 14 -27 12 -21
-3 -21 -5 -24 -351 l-2 -348 -25 -9 c-32 -12 -32 -30 -1 -30 13 0 27 -7 30
-16 3 -9 6 -93 6 -188 0 -95 3 -194 6 -220 7 -45 25 -68 42 -51 4 3 9 117 12
253 l5 246 105 46 c267 116 392 216 478 384 34 67 36 77 37 166 0 86 -3 101
-30 154 -53 104 -172 183 -318 211 -83 16 -248 18 -307 5z"/>
<path d="M1525 1945 c-103 -14 -111 -16 -255 -59 -99 -29 -262 -107 -347 -165
-68 -46 -172 -152 -196 -198 -24 -45 -22 -100 3 -113 29 -16 40 -4 40 40 0 90
133 232 298 318 363 190 773 202 947 28 44 -45 67 -87 86 -158 24 -87 -31
-241 -123 -347 -56 -65 -180 -152 -303 -212 -65 -32 -122 -56 -126 -51 -4 4
-10 147 -14 317 -3 171 -8 320 -11 333 -3 17 -10 22 -27 20 l-22 -3 0 -345 0
-344 -27 -16 c-33 -18 -31 -34 5 -38 l26 -3 3 -224 c3 -229 8 -255 42 -242 14
6 16 38 16 251 l0 244 78 32 c197 82 313 153 403 247 130 134 180 299 132 439
-20 61 -116 160 -189 197 -108 55 -276 74 -439 52z"/>
<path d="M7040 1859 c-12 -22 -6 -65 12 -86 17 -21 56 -15 73 11 12 18 13 29
5 52 -6 16 -17 32 -23 36 -23 15 -56 8 -67 -13z"/>
<path d="M7177 1862 c-24 -27 -22 -88 3 -102 45 -24 92 38 68 88 -16 33 -48
39 -71 14z"/>
<path d="M4103 1809 c-41 -12 -108 -80 -135 -139 -19 -39 -22 -63 -22 -175 0
-139 12 -202 60 -297 14 -27 23 -48 22 -49 -2 0 -23 -2 -48 -3 -52 -2 -92 -25
-109 -64 -44 -96 -45 -97 -76 -97 l-30 0 0 83 c0 63 -4 85 -15 92 -31 20 -63
10 -101 -30 -43 -45 -49 -48 -49 -21 0 22 -25 45 -40 36 -6 -3 -21 -27 -34
-53 -27 -53 -60 -86 -94 -97 -40 -12 -52 10 -52 91 0 65 -2 74 -18 74 -10 0
-22 -3 -26 -7 -4 -4 -27 -6 -52 -4 -62 4 -118 -33 -145 -95 -25 -60 -24 -76 8
-109 38 -37 85 -30 131 21 l34 36 27 -26 c44 -42 91 -36 150 19 26 25 51 45
55 45 3 0 6 -22 6 -48 0 -55 14 -76 42 -61 10 5 18 17 18 26 0 29 70 163 85
163 12 0 15 -15 13 -74 -1 -49 3 -80 11 -90 17 -21 84 -21 101 -1 17 20 32 19
53 -5 33 -38 120 -21 210 42 l28 20 40 -31 c58 -47 102 -63 136 -50 42 16 89
54 113 94 31 50 15 58 -22 12 -43 -53 -98 -80 -135 -66 -32 12 -83 57 -83 74
0 6 20 37 45 70 92 121 145 267 145 398 0 139 -48 250 -123 286 -46 22 -73 25
-124 10z m126 -58 c36 -39 51 -89 58 -194 9 -144 -43 -318 -128 -420 -38 -46
-44 -43 -92 60 -48 103 -77 220 -77 315 0 113 16 164 71 221 42 43 49 47 93
47 40 0 52 -5 75 -29z m-935 -637 c24 -9 20 -32 -15 -86 -33 -51 -55 -68 -76
-61 -30 11 -3 108 38 137 26 18 30 19 53 10z m716 -16 c67 -46 64 -66 -17
-114 -38 -22 -49 -24 -69 -15 -28 12 -31 42 -9 94 13 31 37 56 56 57 3 0 21
-10 39 -22z"/>
<path d="M6960 1770 c-46 -46 23 -126 79 -91 17 11 17 70 -1 86 -26 25 -56 27
-78 5z"/>
<path d="M7262 1770 c-37 -35 -25 -100 19 -100 46 0 84 73 54 104 -22 22 -47
20 -73 -4z"/>
<path d="M7065 1678 c-89 -115 -87 -155 6 -151 87 4 102 4 151 -3 42 -5 48 -4
63 20 20 30 14 66 -13 93 -10 10 -35 39 -56 66 -57 70 -80 66 -151 -25z"/>
<path d="M6641 1588 c-46 -49 20 -137 70 -92 26 23 24 66 -4 92 -29 28 -41 28
-66 0z"/>
<path d="M6777 1590 c-35 -28 -42 -56 -23 -85 33 -50 100 -17 94 45 -2 20 -12
38 -24 47 -18 12 -24 11 -47 -7z"/>
<path d="M6552 1498 c-19 -19 -14 -57 13 -83 28 -29 47 -31 69 -9 22 21 20 46
-5 78 -22 27 -57 34 -77 14z"/>
<path d="M6857 1498 c-19 -15 -31 -67 -20 -84 28 -40 103 -7 103 45 0 47 -44
67 -83 39z"/>
<path d="M6704 1453 c-34 -32 -93 -110 -104 -138 -19 -51 26 -86 88 -70 33 9
75 9 122 0 27 -5 41 -2 59 12 35 29 30 66 -15 116 -22 23 -49 54 -61 70 -24
31 -61 35 -89 10z"/>
<path d="M877 1436 c-4 -9 -12 -16 -19 -14 -7 1 -29 -12 -48 -30 -19 -18 -38
-32 -42 -32 -5 0 -8 -13 -8 -30 0 -20 7 -33 23 -41 33 -18 37 -28 37 -109 0
-71 2 -78 40 -134 30 -44 40 -69 40 -98 0 -49 -24 -108 -44 -108 -9 0 -16 -9
-16 -21 0 -18 5 -20 42 -17 47 3 52 10 90 113 l22 60 7 -40 c3 -22 9 -47 13
-56 5 -12 1 -18 -14 -22 -14 -4 -20 -12 -18 -24 3 -16 13 -18 98 -14 52 2 110
9 129 17 18 8 51 14 72 14 28 0 47 8 70 28 49 44 50 102 5 222 -20 52 -36 110
-36 128 0 38 30 72 64 72 30 0 42 16 26 35 -32 38 -113 -2 -130 -65 -13 -50
-6 -95 31 -184 46 -108 34 -192 -25 -184 -17 2 -22 13 -29 57 -15 108 -97 213
-203 263 -55 26 -65 35 -87 81 -14 29 -32 59 -41 66 -9 7 -16 21 -16 30 0 10
-6 25 -13 35 -13 17 -14 17 -20 2z"/>
<path d="M6027 1192 c-9 -10 -17 -26 -17 -35 0 -29 -40 -125 -55 -131 -24 -9
-45 34 -45 91 0 54 -12 72 -34 54 -21 -17 -27 -69 -15 -112 23 -76 71 -99 122
-59 l25 20 19 -26 c35 -48 111 -23 163 53 12 18 31 33 41 33 16 0 19 -10 21
-72 l3 -73 35 -3 c26 -2 42 4 62 23 33 30 35 30 56 5 45 -52 117 -24 114 45
-1 37 19 75 39 75 5 0 18 -18 29 -39 26 -53 55 -71 110 -71 63 0 138 38 183
91 31 37 39 42 54 33 26 -16 27 -40 4 -63 -27 -27 -27 -56 1 -75 31 -22 64
-20 89 5 17 17 20 29 15 60 -6 37 -4 39 34 61 22 13 40 26 40 31 0 10 -2 10
-55 -14 l-48 -21 -23 23 c-13 13 -25 35 -26 49 -3 22 0 25 25 22 34 -3 35 15
2 30 -36 16 -70 -2 -96 -54 -41 -82 -115 -138 -181 -138 -41 1 -65 18 -73 53
-10 38 9 57 57 57 70 0 117 54 69 80 -52 27 -136 -3 -169 -60 -10 -17 -37 -39
-62 -51 l-45 -21 -27 33 c-36 42 -37 69 -3 69 33 0 32 18 -2 26 -49 13 -84
-28 -66 -76 10 -27 9 -37 -9 -68 -26 -48 -58 -82 -76 -82 -12 0 -13 11 -8 54
9 72 -4 98 -46 94 -30 -3 -32 -1 -32 31 -1 39 -16 49 -40 26 -19 -19 -21 -66
-4 -82 17 -18 -54 -86 -84 -81 -22 3 -23 9 -28 97 -5 98 -14 115 -43 83z m693
-32 c0 -5 -9 -10 -21 -10 -11 0 -17 5 -14 10 3 6 13 10 21 10 8 0 14 -4 14
-10z m-276 -99 c6 -10 -22 -37 -29 -29 -8 7 5 38 15 38 5 0 11 -4 14 -9z m26
-71 c0 -11 -7 -20 -15 -20 -17 0 -18 2 -9 24 9 23 24 20 24 -4z m520 0 c0 -11
-4 -20 -10 -20 -5 0 -10 9 -10 20 0 11 5 20 10 20 6 0 10 -9 10 -20z"/>
<path d="M2637 1143 c-4 -3 -7 -29 -7 -57 -1 -66 -14 -125 -34 -145 -15 -14
-17 -14 -32 0 -8 9 -19 40 -23 70 -8 64 -16 79 -39 79 -16 0 -42 -58 -42 -94
0 -7 -6 -19 -14 -25 -12 -10 -17 -6 -25 26 -6 21 -11 54 -11 74 0 22 -6 39
-13 42 -25 9 -41 -11 -40 -48 1 -29 -6 -43 -33 -71 -39 -38 -55 -42 -79 -17
-13 13 -16 31 -13 82 l3 66 -72 2 c-60 1 -78 -2 -105 -20 -46 -32 -78 -83 -78
-127 0 -56 20 -75 76 -74 42 1 51 5 77 38 l29 36 28 -30 c15 -16 37 -30 48
-30 32 0 89 28 106 52 9 12 17 20 19 17 1 -2 9 -17 17 -33 19 -37 47 -47 88
-30 30 12 35 11 52 -6 28 -28 63 -34 98 -16 29 15 41 37 59 106 7 27 14 34 29
32 10 -2 36 -5 58 -7 49 -5 65 -19 48 -43 -42 -59 -39 -88 11 -106 19 -7 32
-5 51 8 21 13 26 24 26 60 0 40 3 46 41 70 53 36 43 45 -17 15 l-47 -22 -29
32 c-15 17 -28 41 -28 52 0 18 4 20 26 15 21 -6 25 -4 22 11 -4 25 -54 29 -79
7 -10 -9 -19 -30 -19 -46 0 -43 -32 -36 -76 17 -37 45 -45 51 -57 38z m-477
-68 c0 -24 -35 -87 -62 -113 -62 -58 -79 39 -20 111 19 22 82 24 82 2z m690
-141 c0 -8 -4 -14 -10 -14 -5 0 -10 9 -10 21 0 11 5 17 10 14 6 -3 10 -13 10
-21z"/>
<path d="M6300 340 c0 -113 1 -120 20 -120 19 0 20 7 20 120 0 113 -1 120 -20
120 -19 0 -20 -7 -20 -120z"/>
<path d="M5387 444 c-4 -4 -7 -54 -7 -111 0 -56 -3 -103 -6 -103 -3 0 -14 5
-25 10 -24 13 -27 75 -4 84 20 7 19 36 0 36 -9 0 -18 12 -22 30 -4 21 -11 30
-22 28 -23 -5 -24 -194 -1 -208 21 -14 58 -12 63 3 3 9 7 9 20 -1 24 -21 37
-6 37 43 0 40 13 65 27 51 3 -3 8 -25 10 -48 10 -85 43 -76 43 11 0 63 -21 95
-57 89 -15 -2 -19 5 -23 41 -5 42 -18 60 -33 45z"/>
<path d="M5842 333 c3 -103 5 -118 21 -121 15 -3 17 8 17 117 0 115 -1 121
-20 121 -20 0 -21 -5 -18 -117z"/>
<path d="M6155 427 c-9 -26 -12 -173 -3 -189 12 -24 78 -25 78 -2 0 9 -9 18
-20 21 -15 4 -20 14 -20 38 0 25 5 35 20 40 11 3 20 11 20 17 0 5 -9 12 -20
15 -14 4 -20 14 -20 33 0 29 -27 50 -35 27z"/>
<path d="M3761 416 c-8 -9 -11 -49 -9 -122 3 -101 4 -109 23 -109 19 0 20 6
18 114 -3 116 -10 144 -32 117z"/>
<path d="M4324 419 c-5 -9 3 -220 9 -225 3 -3 60 -6 80 -5 10 1 22 13 27 27
l10 26 25 -26 c27 -29 75 -35 95 -11 17 20 5 33 -25 27 -14 -2 -25 0 -25 6 0
6 12 12 28 14 36 4 43 47 13 77 -28 28 -55 26 -79 -4 -25 -31 -29 -31 -54 0
-11 15 -28 24 -41 22 -19 -2 -22 4 -25 41 -3 41 -22 57 -38 31z m206 -119 c0
-5 -4 -10 -10 -10 -5 0 -10 5 -10 10 0 6 5 10 10 10 6 0 10 -4 10 -10z m-120
-29 c0 -21 -23 -45 -33 -34 -4 3 -7 17 -7 30 0 16 6 23 20 23 13 0 20 -7 20
-19z"/>
<path d="M3295 408 c-3 -8 -4 -63 -3 -124 2 -89 6 -109 18 -109 11 0 16 14 20
50 4 36 9 50 20 50 11 0 16 -13 18 -45 4 -56 18 -72 38 -46 13 18 15 19 27 3
12 -16 86 -20 97 -6 3 4 3 35 2 68 -3 52 -8 64 -28 78 -21 13 -29 14 -49 3
-32 -17 -34 -52 -2 -48 28 4 35 -16 7 -20 -12 -2 -24 -10 -27 -18 -9 -24 -23
-16 -23 14 0 36 -24 70 -53 74 -17 2 -23 11 -27 42 -5 40 -26 59 -35 34z"/>
<path d="M2717 403 c-4 -3 -7 -57 -7 -119 0 -88 3 -113 14 -117 30 -12 37 18
30 132 -7 105 -15 127 -37 104z"/>
<path d="M3194 385 c-4 -8 -4 -56 -2 -106 4 -95 11 -109 56 -109 29 0 31 40 2
47 -14 4 -20 14 -20 35 0 21 6 31 20 35 26 7 26 39 1 46 -12 3 -21 15 -23 33
-3 31 -25 44 -34 19z"/>
<path d="M2300 370 c0 -15 5 -20 18 -18 9 2 17 10 17 18 0 8 -8 16 -17 18 -13
2 -18 -3 -18 -18z"/>
<path d="M6705 383 c-55 -8 -62 -24 -61 -124 1 -97 7 -109 57 -109 28 0 59 27
59 52 0 16 -26 43 -48 49 -8 3 -2 13 17 27 l30 22 7 -23 c15 -51 71 -76 102
-45 23 23 14 40 -18 33 -18 -4 -30 -3 -30 4 0 5 12 11 28 13 21 2 28 9 30 31
7 60 -59 89 -96 42 -26 -33 -32 -32 -32 5 0 17 -3 29 -7 29 -5 -1 -21 -4 -38
-6z m3 -60 c-5 -25 -28 -28 -28 -4 0 12 6 21 16 21 9 0 14 -7 12 -17z m127 7
c-3 -5 -10 -10 -16 -10 -5 0 -9 5 -9 10 0 6 7 10 16 10 8 0 12 -4 9 -10z
m-130 -128 c0 -18 -20 -15 -23 4 -3 10 1 15 10 12 7 -3 13 -10 13 -16z"/>
<path d="M993 365 c-4 -12 1 -176 7 -222 1 -10 100 0 108 10 17 20 12 195 -5
213 -20 20 -102 19 -110 -1z m82 -55 c0 -8 -8 -16 -17 -18 -13 -2 -18 3 -18
18 0 15 5 20 18 18 9 -2 17 -10 17 -18z m3 -93 c3 -22 -1 -27 -17 -27 -15 0
-21 6 -21 23 0 46 33 49 38 4z"/>
<path d="M2200 289 c0 -50 5 -99 10 -110 12 -21 59 -26 77 -8 8 8 13 8 17 0 4
-6 14 -11 22 -11 11 0 14 16 14 74 0 75 -10 97 -34 77 -9 -7 -11 -28 -8 -66 5
-60 5 -59 -32 -45 -34 12 -38 69 -6 77 11 3 20 11 20 19 0 7 -9 18 -20 24 -12
6 -20 21 -20 35 0 18 -5 25 -20 25 -19 0 -20 -7 -20 -91z"/>
<path d="M6532 373 l-33 -4 3 -72 c2 -59 6 -72 21 -75 14 -3 17 4 17 41 0 27
6 49 15 57 18 15 23 5 27 -55 2 -29 8 -41 21 -43 15 -3 17 5 17 61 0 49 -4 68
-18 80 -10 10 -23 16 -28 15 -5 0 -24 -3 -42 -5z"/>
<path d="M6905 371 c-11 -10 -4 -128 7 -139 21 -21 28 -13 28 33 0 36 5 51 25
69 14 13 25 28 25 34 0 10 -76 13 -85 3z"/>
<path d="M5546 349 c-22 -17 -26 -28 -26 -69 0 -39 4 -52 22 -64 27 -19 59
-21 76 -4 21 21 13 37 -18 36 -17 -1 -33 2 -37 5 -3 4 8 7 25 7 24 0 35 6 46
28 l14 27 21 -49 c24 -54 21 -81 -9 -89 -24 -6 -26 -32 -4 -41 21 -8 47 7 61
36 14 28 53 155 53 173 0 17 -30 28 -35 12 -2 -6 -9 -25 -16 -42 l-11 -30 -16
40 c-20 52 -19 51 -41 31 -18 -17 -22 -17 -43 -2 -29 20 -30 20 -62 -5z m44
-39 c0 -5 -4 -10 -9 -10 -6 0 -13 5 -16 10 -3 6 1 10 9 10 9 0 16 -4 16 -10z"/>
<path d="M5922 358 c-20 -20 -14 -38 13 -38 31 0 33 -16 3 -26 -28 -8 -38 -22
-38 -51 0 -27 30 -46 51 -33 7 5 21 7 30 4 9 -2 24 2 32 10 13 14 16 14 27 1
16 -19 64 -19 79 -1 19 23 9 70 -16 81 -28 12 -31 29 -4 20 24 -7 37 11 21 30
-25 30 -90 8 -90 -31 0 -8 15 -29 33 -45 l32 -30 -35 3 c-41 4 -50 12 -50 54
0 51 -56 84 -88 52z m38 -98 c0 -5 -5 -10 -11 -10 -5 0 -7 5 -4 10 3 6 8 10
11 10 2 0 4 -4 4 -10z"/>
<path d="M6382 358 c-32 -39 -26 -109 13 -134 54 -35 106 29 82 103 -11 34
-16 38 -48 41 -21 2 -40 -3 -47 -10z m56 -65 c-4 -39 -28 -42 -28 -4 0 21 5
31 16 31 11 0 14 -8 12 -27z"/>
<path d="M4624 342 c-34 -22 -42 -77 -19 -122 12 -24 22 -30 48 -30 18 0 38 5
45 12 8 8 15 8 25 0 7 -6 31 -10 53 -8 l39 4 3 57 c4 70 -15 98 -62 93 -24 -2
-32 -9 -34 -26 -3 -20 0 -22 21 -17 36 9 44 -13 10 -25 -15 -6 -33 -17 -38
-24 -6 -8 -24 -16 -40 -18 -27 -3 -30 0 -33 30 -3 28 0 32 22 32 30 0 42 16
26 35 -13 16 -48 20 -66 7z"/>
<path d="M4847 343 c-16 -15 -7 -101 14 -127 23 -30 45 -33 77 -10 19 13 22
24 22 80 0 57 -2 64 -20 64 -17 0 -20 -7 -20 -49 0 -28 -5 -53 -11 -56 -19
-12 -24 3 -28 78 -1 25 -19 36 -34 20z"/>
<path d="M4990 335 c-17 -20 -5 -62 20 -70 31 -10 26 -37 -5 -29 -31 8 -35
-20 -6 -36 31 -16 49 -12 73 15 20 24 22 24 34 6 17 -24 59 -34 84 -21 31 16
25 40 -9 40 -42 0 -48 18 -9 22 28 2 34 7 36 31 5 38 -14 57 -53 57 -36 0 -50
-12 -60 -53 -4 -16 -12 -26 -19 -22 -6 3 -19 8 -28 11 -24 8 -23 24 0 24 24 0
32 8 25 26 -7 19 -67 18 -83 -1z m174 -36 c-3 -5 -10 -7 -15 -3 -5 3 -7 10 -3
15 3 5 10 7 15 3 5 -3 7 -10 3 -15z"/>
<path d="M3593 333 c-31 -4 -31 -5 -35 -64 -1 -33 0 -70 4 -81 14 -35 33 -14
38 42 6 66 30 82 30 20 0 -54 16 -86 36 -69 22 18 18 101 -7 133 -11 14 -23
25 -27 24 -4 0 -21 -3 -39 -5z"/>
<path d="M3852 333 c-15 -6 -42 -56 -42 -78 0 -10 9 -30 21 -46 54 -76 142 9
98 94 -19 35 -42 44 -77 30z m38 -73 c0 -31 -16 -41 -26 -15 -8 19 2 45 16 45
5 0 10 -13 10 -30z"/>
<path d="M3957 333 c-12 -11 -7 -50 10 -85 9 -18 19 -40 23 -48 4 -8 15 -15
25 -15 20 0 57 86 53 125 -4 32 -30 33 -38 1 -8 -36 -26 -36 -38 -1 -11 29
-22 37 -35 23z"/>
<path d="M4105 320 c-29 -32 -26 -97 4 -121 25 -20 66 -25 76 -9 11 17 35 11
35 -9 0 -11 4 -22 9 -25 11 -7 21 17 21 49 0 21 -4 23 -52 21 -53 -1 -80 16
-34 22 41 5 53 28 29 60 -26 35 -63 40 -88 12z m55 -30 c0 -5 -7 -10 -15 -10
-8 0 -15 5 -15 10 0 6 7 10 15 10 8 0 15 -4 15 -10z"/>
<path d="M1355 310 c-4 -6 -15 -8 -26 -5 -34 11 -89 -62 -59 -80 11 -7 9 -73
-3 -92 -19 -30 33 -70 78 -59 48 12 59 82 15 93 -25 7 -25 8 4 46 18 23 22 37
16 47 -5 8 -7 22 -4 32 6 19 -11 34 -21 18z m-17 -67 c-5 -25 -28 -28 -28 -4
0 12 6 21 16 21 9 0 14 -7 12 -17z m2 -118 c0 -8 -7 -15 -15 -15 -8 0 -15 7
-15 15 0 8 7 15 15 15 8 0 15 -7 15 -15z"/>
<path d="M2369 304 c-5 -6 -6 -41 -2 -78 5 -54 9 -66 22 -64 11 2 18 18 21 51
6 61 24 61 30 0 4 -34 10 -49 22 -51 14 -3 17 6 20 49 4 64 28 82 28 21 0 -22
3 -47 6 -56 9 -25 33 -19 44 10 l10 26 21 -26 c30 -38 99 -34 99 6 0 17 -4 19
-31 13 -24 -5 -30 -4 -27 6 3 8 17 15 31 17 53 6 24 92 -31 92 -11 0 -32 -14
-46 -32 l-25 -32 -10 27 c-13 33 -37 44 -63 28 -10 -6 -24 -8 -31 -4 -18 12
-77 10 -88 -3z m276 -34 c-3 -5 -10 -10 -16 -10 -5 0 -9 5 -9 10 0 6 7 10 16
10 8 0 12 -4 9 -10z"/>
<path d="M2791 294 c-28 -35 -26 -75 4 -108 35 -38 95 -31 95 12 0 10 -8 12
-30 7 -23 -5 -30 -3 -30 9 0 9 11 16 28 18 21 2 28 9 30 31 7 59 -59 80 -97
31z"/>
<path d="M2911 290 c-9 -27 -7 -32 19 -52 37 -27 39 -41 5 -32 -34 8 -34 -22
0 -38 19 -9 29 -8 50 6 23 15 28 15 56 1 28 -15 33 -15 55 0 32 21 32 60 -1
81 -31 20 -32 31 -2 30 13 -1 22 5 22 14 0 10 -13 16 -41 18 -35 3 -42 0 -47
-17 -8 -31 3 -60 24 -66 29 -9 23 -25 -10 -25 -21 0 -30 6 -34 21 -3 11 -15
23 -26 26 -27 7 -27 23 -1 23 13 0 20 7 20 20 0 17 -7 20 -39 20 -34 0 -40 -4
-50 -30z"/>
<path d="M1418 299 c-12 -6 -18 -22 -18 -45 0 -27 5 -37 25 -46 28 -12 25 -29
-4 -21 -26 7 -37 -16 -15 -32 43 -33 84 -12 84 42 0 27 -5 36 -27 45 l-28 12
28 4 c31 4 36 27 8 42 -24 12 -31 12 -53 -1z"/>
<path d="M1569 287 c-6 -10 -7 -44 -3 -77 5 -49 10 -60 25 -60 15 0 19 10 21
53 4 64 21 64 28 0 4 -40 8 -48 25 -48 17 0 20 8 23 53 4 68 25 65 32 -4 6
-57 31 -69 40 -19 l5 30 23 -33 c32 -44 85 -42 103 4 11 31 29 31 29 -1 0 -18
5 -25 20 -25 16 0 20 7 20 36 0 44 15 74 38 74 14 0 18 -9 18 -42 2 -64 53
-98 99 -65 21 16 12 39 -13 36 -29 -3 -42 1 -42 11 0 6 13 10 29 10 16 0 34 7
41 15 11 13 10 21 -7 43 -25 33 -58 39 -84 16 -17 -16 -22 -16 -29 -4 -5 8
-26 15 -46 16 -31 1 -38 -3 -48 -27 l-12 -29 -22 30 c-32 42 -65 40 -96 -6
l-25 -37 -7 27 c-8 34 -37 50 -64 36 -11 -6 -26 -7 -33 -3 -23 15 -79 9 -88
-10z m521 -28 c0 -5 -7 -9 -15 -9 -15 0 -20 12 -9 23 8 8 24 -1 24 -14z m-240
-29 c0 -20 -5 -30 -15 -30 -15 0 -21 40 -8 53 14 15 23 6 23 -23z"/>
<path d="M1155 287 c-23 -17 -12 -37 21 -37 13 0 24 -4 24 -10 0 -5 -8 -10
-19 -10 -26 0 -43 -24 -39 -57 3 -26 6 -28 51 -29 26 0 51 4 54 9 12 20 2 112
-14 129 -19 21 -52 23 -78 5z"/>
</g>
</svg>
